<svg width="699" height="243" viewBox="0 0 699 243" fill="none" xmlns="http://www.w3.org/2000/svg">
<path d="M306.945 134.68L306.926 138.98C308.883 139.066 311.461 138.922 312.969 140.406C313.199 140.633 313.609 141.113 313.734 141.395C314.637 143.383 314.273 182.969 313.969 188.336C313.891 189.707 313.82 190.859 312.605 191.73C310.703 193.102 307.883 191.57 306.73 193.887C306.75 194.664 306.742 195.363 307.012 196.109C308.617 196.598 332.953 196.457 336.328 196.328C339.266 196.215 342.207 196.027 345.113 195.57C349.301 194.914 353.523 193.746 357.277 191.738C357.906 191.398 358.531 191.047 359.148 190.688C365.855 186.113 370.23 179.406 371.773 171.414C373.363 163.191 372.215 153.844 367.422 146.832C363.102 140.516 356.191 136.895 348.785 135.555C341.719 134.277 334.324 134.855 327.176 134.906C320.43 134.91 313.688 134.836 306.941 134.68H306.945ZM331.359 139.785C338.219 139.781 344.75 140.305 350.172 145.352C355.191 150.02 357.184 157.246 357.426 163.906C357.703 171.609 355.902 178.812 350.598 184.562C346.91 188.16 342.215 190.023 337.16 190.684C334.234 191.066 331.34 191.387 328.871 189.473C328.367 187.879 328.23 186.172 328.156 184.512C327.949 179.871 327.668 141.832 328.402 139.809C329.395 139.801 330.379 139.785 331.359 139.785Z" fill="#0B203A"/>
<path d="M458.969 17.3872C454.203 17.4302 449.441 17.4342 444.68 17.4022L421.805 76.6912C418.766 84.6292 414.5 98.2112 410.785 105.191C409.914 106.832 408.887 108.141 407.168 108.934C405.441 109.727 403.297 109.797 401.426 109.977C401.383 111.793 401.301 113.621 401.316 115.438C412.098 115.41 422.879 115.492 433.66 115.68L433.586 109.301C430.406 109.266 425.465 109.812 422.859 107.902C421.723 105.961 422.07 103.789 422.617 101.695C424.297 95.2852 427.25 89.0512 429.367 82.7582L460.445 82.6372C461.648 82.9922 461.699 83.0352 462.312 84.2032C464.195 87.7732 471.102 104.172 470.562 107.215C468.051 109.676 463.523 109.184 460.207 109.234L460.238 115.316C475.039 115.168 489.84 115.215 504.641 115.461C504.707 113.656 505.031 111.762 504.105 110.148C501.523 107.98 498.34 109.328 495.914 106.184C492.586 101.879 487.539 86.7732 485.223 81.0742C476.617 59.8872 468.34 38.2382 458.969 17.3872ZM445.316 40.8672C447.836 43.3442 456.551 69.3482 458.422 74.4492L445.742 74.4922L433.074 74.4772C436.234 62.9572 440.766 51.8912 445.316 40.8672Z" fill="#0B203A"/>
<path d="M631.223 16.938V16.941C622.922 37.746 615.371 58.914 607.379 79.852C604.266 88 601.504 97.641 597.492 105.301C596.695 106.824 595.582 108.203 593.973 108.91C592.254 109.668 590.078 109.695 588.219 109.848L588.246 115.469C599.117 115.355 609.992 115.758 620.855 115.613L620.734 109.25C617.422 109.27 612.906 109.918 610.059 107.961C608.91 106.219 609.016 104.496 609.422 102.512C610.75 95.992 614.035 89.109 616.379 82.84C626.223 82.676 636.062 82.605 645.91 82.637C646.926 82.664 648.355 82.371 649.035 83.285C651.215 86.23 657.406 103.824 657.91 107.539C657.301 108.473 656.492 108.863 655.438 109.121C653.016 109.711 650.121 109.438 647.633 109.395L647.641 115.332C661.812 115.004 675.984 115.02 690.156 115.383C690.223 113.746 690.582 111.77 689.711 110.324C688.719 109.656 687.859 109.355 686.723 108.98C683.473 107.906 681.781 106.156 680.32 103.059C676.055 94.023 672.645 84.328 668.863 75.066C660.941 55.738 653.125 36.367 645.41 16.953L631.223 16.938ZM631.871 40.785C634.004 42.598 643.773 70.031 645.469 74.453L633.809 74.5L619.594 74.492C622.461 63.004 628.055 52.012 631.871 40.781V40.785Z" fill="#0B203A"/>
<path d="M544.848 14.9142C546.246 14.7542 547.645 14.6412 549.051 14.5742C550.457 14.5042 551.859 14.4842 553.266 14.5082C554.672 14.5312 556.078 14.6022 557.48 14.7152C558.879 14.8322 560.277 14.9922 561.668 15.1992C563.059 15.4062 564.441 15.6602 565.816 15.9572C567.191 16.2542 568.555 16.5942 569.91 16.9802C571.262 17.3672 572.602 17.7972 573.926 18.2702C575.25 18.7422 576.559 19.2622 577.848 19.8202C577.867 26.6842 578.398 33.5862 578.809 40.4382L570.934 40.3522C570.395 35.9412 569.039 31.7702 565.914 28.4842C562.281 24.6602 557.145 22.9412 551.965 22.7502C546.57 22.5552 540.574 23.7272 536.617 27.6452C534.266 29.9772 533.086 33.0902 533.086 36.3792C533.082 49.1952 553.188 53.1802 562.562 57.2502C567.656 59.4612 572.641 62.2932 576.625 66.2112C581.895 71.4022 584.652 78.0312 584.707 85.4102C584.711 85.8872 584.699 86.3672 584.68 86.8442C584.66 87.3202 584.625 87.7932 584.582 88.2702C584.535 88.7462 584.48 89.2192 584.41 89.6912C584.344 90.1642 584.262 90.6332 584.172 91.1022C584.078 91.5702 583.977 92.0352 583.863 92.5002C583.746 92.9612 583.621 93.4222 583.484 93.8792C583.344 94.3362 583.195 94.7892 583.035 95.2382C582.875 95.6882 582.703 96.1332 582.52 96.5742C582.336 97.0162 582.145 97.4492 581.941 97.8792C581.734 98.3122 581.52 98.7382 581.297 99.1562C581.07 99.5782 580.836 99.9922 580.59 100.402C580.344 100.809 580.086 101.211 579.82 101.609C579.555 102.004 579.277 102.395 578.992 102.773C578.707 103.156 578.414 103.531 578.109 103.898C577.805 104.266 577.492 104.625 577.168 104.98C576.848 105.332 576.516 105.676 576.176 106.008C566.801 115.324 552.633 117.547 539.984 117.473C530.781 116.609 522.52 115.391 514.203 111.152C513.512 102.586 513.641 94.0082 512.746 85.4412L520.207 85.9692C521.371 92.8792 523.398 99.5042 528.867 104.285C533.914 108.699 540.527 110.449 547.121 109.82C552.648 109.293 557.645 107.148 561.16 102.738C564.004 99.1762 565.168 94.8982 564.52 90.3712C562.855 78.7382 547.645 75.1372 538.473 71.5472C533.199 69.4802 527.656 67.1332 523.098 63.7112C517.5 59.5042 514.203 54.0082 513.27 47.0512C512.32 39.9842 513.98 33.1762 518.355 27.5272C524.699 19.3362 534.949 16.0622 544.848 14.9142Z" fill="#0B203A"/>
<path d="M661.329 134.688C657.38 145.668 653.302 156.605 649.103 167.496C646.821 173.582 643.81 182.715 640.837 188.156C640.149 189.418 639.231 190.59 637.919 191.238C636.896 191.742 634.524 192.242 634.032 193.344C633.661 194.188 633.841 195.523 633.872 196.453C640.841 196.41 647.813 196.414 654.782 196.461L654.743 192.215C652.806 192.242 649.708 192.691 648.204 191.168C647.591 190.543 647.419 189.859 647.474 189.008C647.638 186.465 650.872 180.051 651.927 177.105L670.716 176.957C671.505 177.023 672.103 176.887 672.646 177.547C674.571 179.898 677.321 188.293 677.747 191.355C676.181 192.676 672.927 192.273 670.981 192.297L670.935 196.449C680.067 196.387 689.251 196.246 698.38 196.574C698.419 195.449 698.673 194.035 698.021 193.066C697.298 192.582 696.618 192.234 695.825 191.871C694.212 191.133 693.259 190.309 692.337 188.781C689.673 184.363 687.603 177.652 685.677 172.777L670.939 134.723C667.739 134.73 664.528 134.793 661.329 134.688ZM662.009 150.148C663.622 151.676 669.212 168.324 670.485 171.75C667.864 171.52 665.228 171.539 662.599 171.516L653.817 171.652C656.142 164.359 659.185 157.258 662.009 150.148Z" fill="#0B203A"/>
<path d="M508.312 134.668L494.926 170.023C492.617 176.094 490.582 182.922 487.465 188.613C486.879 189.68 486.297 190.535 485.141 191.035C484.395 191.355 480.562 192.523 480.363 192.969C479.973 193.844 480.199 195.5 480.211 196.477C487.367 196.422 494.523 196.41 501.684 196.445V192.152C499.691 192.152 496.789 192.516 495.242 190.953C494.469 190.172 494.227 189.312 494.293 188.246C494.5 184.781 497.203 180.406 498.441 177.102C504.758 177.09 511.07 177.008 517.383 176.848C518.207 176.898 518.762 176.738 519.328 177.43C521.215 179.73 523.945 188.207 524.422 191.125C524.004 191.816 523.414 192.074 522.633 192.23C521.043 192.551 519.219 192.398 517.594 192.387V196.445L545.383 196.492C545.445 195.273 545.719 193.875 545.02 192.809C544.32 192.316 543.75 192.105 542.93 191.848C540.75 191.16 539.715 190.016 538.695 187.996C536.188 183.039 534.359 177.426 532.32 172.242C527.41 159.789 522.797 147.133 517.473 134.852L508.312 134.668ZM508.949 149.836C510.949 152.59 515.746 167.492 517.238 171.598C514.434 171.633 511.621 171.578 508.812 171.559C506.047 171.52 503.27 171.605 500.504 171.641C503.062 164.273 506.02 157.059 508.949 149.836Z" fill="#0B203A"/>
<path d="M356.146 15.3753C368.251 13.3953 382.716 16.5593 393.415 22.2733C393.384 29.9063 393.622 37.4883 393.978 45.1133H387.286C385.786 39.0353 383.931 33.1803 378.825 29.0863C373.153 24.5393 364.95 23.1293 357.876 23.8483C350.552 24.5943 344.239 28.0903 339.665 33.8283C331.407 44.1883 329.517 60.1413 330.942 72.9223C332.22 84.3283 336.333 96.8833 345.685 104.211C352.063 109.211 359.431 110.414 367.267 109.418C373.876 108.574 378.567 105.793 382.642 100.59C385.31 95.9063 386.685 91.2153 388.079 86.0203C390.778 85.8953 393.497 85.9023 396.2 85.8523C395.024 94.3443 394.056 102.855 393.294 111.391C386.724 114.84 378.794 116.406 371.485 117.238C355.157 119.086 336.103 117.117 322.927 106.359C313.247 98.4573 308.036 85.7973 306.853 73.5703C305.431 58.8483 308.81 44.2733 318.341 32.7463C327.931 21.1483 341.638 16.7853 356.146 15.3753Z" fill="#0B203A"/>
<path d="M432.899 134.684L486.38 134.676C486.72 139.883 487.017 145.086 487.056 150.309L482.274 150.43C482.044 147.586 481.532 144.234 479.36 142.18C476.317 139.301 470.535 140.152 466.66 140.215C466.496 149.816 466.738 159.438 466.707 169.043C466.688 175.184 466.189 181.707 466.689 187.812C466.782 188.945 467.06 189.887 467.505 190.926C469.692 192.523 472.059 192.422 474.66 192.559L474.646 196.52C464.743 196.309 454.844 196.32 444.941 196.559L444.962 192.547C446.997 192.441 450.325 192.613 451.759 190.859C452.345 190.145 452.364 189.094 452.431 188.219C452.833 182.848 452.524 177.242 452.521 171.844L452.47 140.223C448.892 140.223 443.446 139.387 440.446 141.684C437.813 143.695 437.411 147.293 436.978 150.34L432.231 150.301C432.157 145.145 432.321 139.812 432.896 134.684H432.899Z" fill="#0B203A"/>
<path d="M548.988 134.699L578.715 134.711L578.773 138.949C576.062 139.125 573.145 139.031 571.215 141.227C570.816 142.539 570.691 143.855 570.652 145.219C570.426 153.125 570.742 161.102 570.727 169.016C570.719 174.207 569.789 184.941 570.965 189.473C571.367 190 571.766 190.199 572.41 190.355C575.688 191.145 586.617 189.969 589.453 188.234C592.746 186.227 593.773 182.297 594.559 178.777L599.34 178.934L598.621 184.219C598.375 188.039 597.387 191.98 596.941 195.812C580.973 195.746 565.023 196.348 549.059 196.449C549.051 195.203 549.027 193.969 549.137 192.727C550.824 191.605 553.504 192.703 555.379 191.168C556.457 190.277 556.457 189.082 556.535 187.789C557.094 178.824 556.727 169.613 556.711 160.625C556.703 154.797 557.191 148.52 556.539 142.754C556.422 141.719 556.398 140.988 555.582 140.254C554.039 138.871 551.004 138.996 549.047 138.898L548.988 134.699Z" fill="#0B203A"/>
<path d="M601.961 134.672C611.672 134.789 621.379 134.789 631.086 134.672L631.102 138.941C629.277 139.09 626.539 139.109 625.07 140.285C624.359 140.855 624.113 141.266 623.992 142.16C623.27 147.594 623.918 153.668 623.934 159.18C623.953 168.168 623.609 177.207 623.879 186.191C623.906 187.133 623.863 189.992 624.438 190.652C625.977 192.418 628.977 192.336 631.129 192.496C631.195 193.863 631.258 195.129 631.039 196.492C621.594 196.312 612.02 196.746 602.602 196.312C602.074 195.652 601.891 195.352 601.82 194.504C602.855 192.598 605.848 192.434 607.703 191.578C608.676 191.129 609.418 190.516 609.738 189.453C610.316 187.555 609.871 147.82 609.652 143.637C609.613 142.816 609.594 141.348 609.102 140.707C607.711 138.906 604.039 139.012 601.969 138.867C601.918 137.473 601.965 136.062 601.965 134.668L601.961 134.672Z" fill="#0B203A"/>
<path d="M401.477 134.688C410.754 134.828 420.035 134.828 429.312 134.691L429.359 138.918C427.895 139.016 426.336 139.043 424.934 139.52C424.039 139.82 423.188 140.32 422.812 141.23C421.875 143.523 421.988 181.25 422.328 186.898C422.41 188.273 422.48 189.871 423.055 191.133C424.738 192.656 427.031 192.527 429.184 192.707L429.156 196.492C419.77 196.355 410.465 196.309 401.074 196.492L401.055 192.609C402.211 192.551 403.387 192.523 404.531 192.371C405.965 192.18 406.805 191.684 407.668 190.539C408.449 187.469 408.828 142.59 407.508 140.629C406.348 138.898 403.266 139.039 401.461 138.969L401.477 134.688Z" fill="#0B203A"/>
<path d="M387.18 132.84C388.996 132.711 390.809 133.094 392.352 134.082C394.277 135.316 395.398 137.289 395.84 139.5C396.656 143.578 395.523 148.312 393.172 151.699C390.133 156.082 385.723 157.711 380.734 158.609C379.477 158.797 378.168 158.852 376.902 158.965C379.301 157.023 381.875 155.504 383.996 153.207C385.141 151.965 387.027 149.684 386.75 147.836C386.629 147.035 386.41 146.645 385.805 146.129C385.031 145.965 384.188 145.812 383.457 145.496C382.418 145.039 381.887 143.773 381.523 142.762C381.441 142.535 381.371 142.305 381.312 142.074C381.254 141.84 381.203 141.605 381.168 141.367C381.133 141.129 381.109 140.891 381.094 140.652C381.082 140.41 381.082 140.172 381.094 139.93C381.105 139.691 381.129 139.453 381.164 139.215C381.199 138.977 381.246 138.742 381.305 138.508C381.363 138.273 381.43 138.047 381.512 137.82C381.594 137.594 381.684 137.371 381.789 137.156C382.945 134.746 384.766 133.707 387.18 132.84Z" fill="#0B203A"/>
<path d="M476.555 217.512C476.277 217.504 476.004 217.508 475.727 217.516C475.453 217.523 475.176 217.543 474.902 217.57C474.629 217.598 474.355 217.633 474.086 217.68C473.812 217.723 473.543 217.777 473.273 217.84V217.844C473.078 217.891 472.879 217.941 472.684 217.996C472.488 218.055 472.293 218.113 472.102 218.18C471.906 218.246 471.715 218.316 471.527 218.391C471.336 218.469 471.148 218.547 470.965 218.633C470.777 218.715 470.594 218.805 470.41 218.898C470.23 218.992 470.051 219.09 469.875 219.191C469.699 219.293 469.527 219.398 469.355 219.512C469.184 219.621 469.016 219.738 468.848 219.855C468.684 219.973 468.52 220.098 468.359 220.223C468.199 220.352 468.043 220.48 467.891 220.613C467.738 220.75 467.586 220.887 467.441 221.031C467.293 221.172 467.152 221.316 467.012 221.465C466.871 221.613 466.734 221.766 466.602 221.922C466.469 222.078 466.344 222.234 466.219 222.395C466.094 222.559 465.973 222.723 465.855 222.891C465.742 223.059 465.629 223.227 465.52 223.402C465.41 223.574 465.309 223.75 465.207 223.926C465.109 224.105 465.012 224.285 464.922 224.469C464.832 224.652 464.746 224.836 464.664 225.023C464.582 225.211 464.504 225.398 464.43 225.59C464.359 225.781 464.293 225.973 464.227 226.168C464.164 226.363 464.105 226.559 464.051 226.754C464 226.949 463.949 227.148 463.906 227.348C463.863 227.547 463.824 227.746 463.789 227.949C463.754 228.152 463.723 228.352 463.699 228.555C463.676 228.758 463.656 228.961 463.641 229.164C463.629 229.367 463.617 229.57 463.613 229.773C463.609 229.98 463.609 230.184 463.613 230.387C463.617 230.59 463.629 230.793 463.645 231C463.66 231.203 463.68 231.406 463.703 231.609C463.73 231.809 463.758 232.012 463.793 232.215C463.828 232.414 463.867 232.613 463.914 232.812C463.957 233.012 464.008 233.211 464.062 233.406C464.117 233.605 464.176 233.801 464.238 233.992C464.305 234.188 464.371 234.379 464.445 234.57C464.52 234.762 464.598 234.949 464.68 235.137C464.762 235.32 464.848 235.508 464.938 235.688C465.031 235.871 465.125 236.051 465.227 236.23C465.328 236.406 465.43 236.582 465.539 236.754C465.648 236.926 465.762 237.098 465.879 237.266C465.996 237.434 466.117 237.598 466.242 237.758C466.367 237.918 466.496 238.078 466.629 238.23C466.762 238.387 466.898 238.539 467.035 238.688C467.176 238.836 467.32 238.98 467.469 239.121C467.613 239.262 467.766 239.402 467.918 239.535C468.074 239.668 468.23 239.801 468.391 239.926C468.551 240.051 468.715 240.172 468.879 240.289C469.047 240.41 469.215 240.523 469.387 240.633C469.559 240.742 469.73 240.848 469.91 240.953C470.086 241.055 470.266 241.152 470.445 241.242C470.629 241.336 470.812 241.426 470.996 241.508C471.184 241.594 471.371 241.672 471.559 241.746C471.75 241.82 471.941 241.891 472.137 241.957C472.328 242.023 472.523 242.082 472.719 242.137C472.914 242.191 473.113 242.246 473.312 242.289C473.512 242.336 473.711 242.379 473.91 242.414C474.109 242.453 474.312 242.48 474.516 242.508C474.715 242.535 474.918 242.559 475.121 242.574C475.324 242.59 475.527 242.602 475.73 242.609C475.938 242.617 476.141 242.617 476.344 242.613C476.547 242.609 476.75 242.602 476.953 242.59C477.156 242.574 477.359 242.559 477.562 242.535C477.766 242.512 477.969 242.484 478.168 242.449C478.371 242.418 478.57 242.379 478.77 242.34C479.039 242.281 479.309 242.215 479.574 242.137C479.836 242.062 480.098 241.98 480.359 241.887C480.617 241.793 480.875 241.691 481.129 241.582C481.383 241.473 481.629 241.355 481.875 241.23C482.121 241.105 482.359 240.973 482.598 240.828C482.832 240.688 483.066 240.539 483.293 240.383C483.52 240.223 483.738 240.059 483.953 239.887C484.172 239.715 484.379 239.539 484.582 239.352C484.785 239.168 484.984 238.973 485.176 238.777C485.367 238.578 485.551 238.371 485.73 238.164C485.906 237.953 486.078 237.734 486.242 237.516C486.406 237.293 486.562 237.062 486.711 236.832C486.859 236.598 487 236.363 487.133 236.121C487.266 235.879 487.391 235.633 487.508 235.383C487.625 235.133 487.734 234.883 487.832 234.625C487.934 234.367 488.023 234.109 488.109 233.844C488.191 233.582 488.266 233.316 488.332 233.047C488.395 232.781 488.453 232.512 488.5 232.238C488.547 231.969 488.586 231.695 488.617 231.422C488.648 231.145 488.668 230.871 488.68 230.598C488.691 230.32 488.691 230.043 488.688 229.77C488.684 229.492 488.664 229.219 488.641 228.941C488.617 228.668 488.582 228.395 488.543 228.121C488.5 227.852 488.445 227.578 488.387 227.309C488.324 227.039 488.258 226.773 488.18 226.508C488.102 226.246 488.016 225.984 487.922 225.727C487.824 225.465 487.723 225.211 487.609 224.957C487.496 224.707 487.379 224.457 487.25 224.215C487.121 223.969 486.984 223.73 486.84 223.496C486.695 223.262 486.543 223.031 486.387 222.805C486.227 222.578 486.059 222.359 485.887 222.148C485.711 221.934 485.531 221.723 485.344 221.52C485.156 221.32 484.965 221.125 484.762 220.934C484.562 220.746 484.355 220.562 484.145 220.387C483.93 220.211 483.715 220.043 483.492 219.883C483.266 219.719 483.039 219.566 482.805 219.418C482.57 219.273 482.332 219.137 482.09 219.004C481.848 218.875 481.602 218.75 481.352 218.637C481.102 218.52 480.844 218.418 480.59 218.32C480.332 218.223 480.07 218.133 479.805 218.051C479.543 217.969 479.277 217.898 479.008 217.836C478.738 217.773 478.469 217.719 478.199 217.676C477.926 217.629 477.652 217.594 477.379 217.566C477.105 217.539 476.832 217.523 476.555 217.512ZM475.941 221.801C476.078 221.797 476.211 221.797 476.348 221.801C476.484 221.801 476.617 221.809 476.754 221.82C476.887 221.832 477.02 221.844 477.156 221.859C477.289 221.875 477.422 221.895 477.555 221.918C477.688 221.941 477.82 221.969 477.953 221.996C478.086 222.027 478.215 222.059 478.344 222.098C478.477 222.133 478.605 222.172 478.734 222.215C478.863 222.258 478.988 222.301 479.113 222.352C479.242 222.398 479.367 222.453 479.488 222.508C479.613 222.562 479.734 222.621 479.855 222.68C479.977 222.742 480.094 222.805 480.211 222.871C480.328 222.938 480.445 223.008 480.559 223.082C480.672 223.152 480.785 223.227 480.895 223.305C481.004 223.383 481.113 223.465 481.219 223.547C481.328 223.629 481.43 223.715 481.535 223.805C481.637 223.895 481.734 223.984 481.832 224.078C481.93 224.172 482.027 224.266 482.117 224.363C482.211 224.461 482.305 224.562 482.391 224.664C482.48 224.77 482.566 224.871 482.648 224.98C482.73 225.086 482.812 225.195 482.887 225.305C482.965 225.414 483.039 225.527 483.113 225.641C483.184 225.758 483.254 225.875 483.32 225.992C483.387 226.109 483.449 226.227 483.512 226.348C483.57 226.469 483.629 226.59 483.684 226.715C483.738 226.84 483.789 226.965 483.84 227.09C483.887 227.215 483.93 227.344 483.973 227.473C484.016 227.602 484.055 227.73 484.09 227.859C484.125 227.988 484.16 228.121 484.188 228.254C484.219 228.387 484.246 228.52 484.266 228.652C484.289 228.785 484.309 228.918 484.324 229.051C484.344 229.188 484.355 229.32 484.367 229.457C484.375 229.59 484.379 229.727 484.383 229.859C484.387 229.996 484.387 230.133 484.383 230.266C484.379 230.402 484.375 230.535 484.363 230.672C484.352 230.809 484.34 230.941 484.32 231.074C484.305 231.211 484.285 231.344 484.262 231.477C484.238 231.609 484.211 231.742 484.184 231.875C484.152 232.004 484.121 232.137 484.082 232.266C484.047 232.398 484.008 232.527 483.965 232.656C483.922 232.781 483.875 232.91 483.828 233.035C483.777 233.164 483.727 233.285 483.672 233.41C483.617 233.535 483.559 233.656 483.496 233.777C483.438 233.898 483.371 234.016 483.305 234.133C483.238 234.25 483.168 234.367 483.098 234.48C483.023 234.594 482.949 234.707 482.871 234.816C482.793 234.93 482.711 235.035 482.629 235.141C482.543 235.246 482.457 235.352 482.371 235.453C482.281 235.559 482.191 235.656 482.098 235.754C482.004 235.852 481.906 235.945 481.809 236.039C481.711 236.133 481.613 236.223 481.508 236.312C481.406 236.398 481.301 236.484 481.195 236.566C481.09 236.648 480.98 236.73 480.867 236.809C480.758 236.887 480.645 236.961 480.531 237.031C480.418 237.105 480.301 237.172 480.184 237.238C480.066 237.305 479.945 237.371 479.824 237.43C479.703 237.488 479.582 237.547 479.457 237.602C479.336 237.656 479.211 237.707 479.082 237.754C478.957 237.805 478.832 237.848 478.703 237.891C478.574 237.934 478.445 237.973 478.312 238.008C478.184 238.043 478.055 238.074 477.922 238.102C477.789 238.133 477.656 238.16 477.523 238.18C477.391 238.203 477.258 238.223 477.125 238.238C476.988 238.254 476.855 238.27 476.723 238.277C476.586 238.285 476.453 238.293 476.316 238.297C476.184 238.297 476.047 238.297 475.914 238.297C475.777 238.293 475.645 238.285 475.508 238.273C475.375 238.262 475.242 238.25 475.109 238.234C474.977 238.219 474.844 238.195 474.711 238.172C474.578 238.148 474.445 238.121 474.312 238.094C474.18 238.062 474.051 238.031 473.922 237.992C473.793 237.957 473.664 237.918 473.535 237.875C473.406 237.832 473.281 237.785 473.156 237.738C473.031 237.688 472.906 237.637 472.781 237.582C472.66 237.527 472.539 237.469 472.418 237.406C472.297 237.348 472.18 237.281 472.062 237.215C471.945 237.148 471.828 237.078 471.715 237.008C471.602 236.934 471.488 236.859 471.379 236.781C471.27 236.703 471.164 236.621 471.059 236.539C470.949 236.457 470.848 236.371 470.746 236.281C470.645 236.191 470.543 236.102 470.445 236.008C470.348 235.918 470.254 235.82 470.16 235.723C470.07 235.625 469.98 235.523 469.891 235.422C469.805 235.32 469.719 235.215 469.637 235.109C469.551 235 469.473 234.895 469.395 234.785C469.316 234.672 469.242 234.562 469.172 234.445C469.102 234.332 469.031 234.219 468.965 234.098C468.898 233.98 468.836 233.863 468.773 233.742C468.715 233.621 468.656 233.5 468.602 233.375C468.547 233.254 468.496 233.129 468.449 233C468.402 232.875 468.355 232.75 468.312 232.621C468.27 232.492 468.234 232.363 468.199 232.234C468.16 232.102 468.129 231.973 468.102 231.84C468.07 231.711 468.043 231.578 468.023 231.445C468 231.312 467.98 231.18 467.965 231.043C467.949 230.91 467.934 230.777 467.926 230.641C467.918 230.508 467.91 230.371 467.906 230.238C467.902 230.102 467.902 229.969 467.906 229.832C467.91 229.699 467.914 229.562 467.926 229.43C467.938 229.293 467.949 229.16 467.969 229.027C467.984 228.891 468.004 228.758 468.027 228.625C468.051 228.492 468.074 228.359 468.105 228.23C468.137 228.098 468.168 227.969 468.203 227.84C468.242 227.707 468.281 227.578 468.32 227.449C468.363 227.324 468.41 227.195 468.461 227.07C468.508 226.941 468.559 226.82 468.613 226.695C468.668 226.574 468.727 226.453 468.785 226.332C468.848 226.211 468.91 226.09 468.977 225.973C469.043 225.855 469.113 225.742 469.188 225.629C469.258 225.512 469.332 225.402 469.41 225.293C469.488 225.18 469.57 225.074 469.652 224.969C469.734 224.859 469.82 224.758 469.906 224.656C469.996 224.555 470.086 224.453 470.18 224.355C470.273 224.258 470.367 224.16 470.465 224.07C470.562 223.977 470.664 223.887 470.766 223.797C470.867 223.711 470.973 223.625 471.078 223.543C471.184 223.457 471.293 223.379 471.402 223.301C471.512 223.223 471.625 223.148 471.738 223.074C471.852 223.004 471.969 222.934 472.086 222.867C472.203 222.801 472.32 222.738 472.441 222.676C472.562 222.617 472.684 222.559 472.805 222.504C472.93 222.449 473.055 222.398 473.18 222.352C473.305 222.301 473.434 222.254 473.562 222.215C473.688 222.172 473.816 222.133 473.949 222.098C474.078 222.059 474.207 222.027 474.34 221.996C474.469 221.969 474.602 221.941 474.734 221.918C474.867 221.895 475 221.875 475.137 221.859C475.27 221.844 475.406 221.828 475.539 221.82C475.676 221.809 475.809 221.805 475.945 221.801H475.941Z" fill="#0B203A"/>
<path d="M506.988 217.824C505.844 217.828 504.707 217.863 503.617 217.859L499.859 217.918C499.926 226.02 499.934 234.121 499.887 242.223L504.281 242.219L504.262 233.316L508.613 233.297L513.207 240.902C513.766 241.676 513.949 242.102 514.973 242.258C516.195 242.445 517.727 242.227 518.977 242.172C517.094 239.059 515.172 235.969 513.211 232.906C515.543 231.723 517.102 230.531 517.953 227.965C518.598 226.027 518.496 223.809 517.504 222.004C516.512 220.191 514.57 218.852 512.59 218.34C510.828 217.887 508.898 217.812 506.988 217.824ZM507.297 221.918C509.016 221.91 510.77 222.047 512.203 222.742C513.016 223.141 513.684 223.82 513.844 224.746C514.074 226.098 513.477 227.309 512.805 228.426C510.109 229.699 507.199 229.391 504.293 229.363L504.309 222C505.242 221.984 506.262 221.926 507.293 221.918H507.297Z" fill="#0B203A"/>
<path d="M370.051 217.727C367.715 217.711 365.355 217.883 363.23 217.922L363.266 242.219L367.566 242.223V233.312L371.973 233.324C372.973 235.039 376.332 241.566 377.645 242.234L382.316 242.195L376.473 232.801C378.703 231.859 380.086 230.914 381.004 228.59C381.781 226.613 381.797 224.266 380.902 222.32C380.082 220.523 378.555 219.309 376.719 218.66C374.695 217.945 372.387 217.742 370.051 217.727ZM370.555 221.922C372.258 221.918 373.984 222.059 375.43 222.766C376.242 223.168 376.934 223.828 377.102 224.762C377.34 226.086 376.746 227.332 376.094 228.434C373.379 229.66 370.484 229.387 367.574 229.359L367.586 221.996C368.523 221.98 369.535 221.922 370.555 221.922Z" fill="#0B203A"/>
<path d="M563.332 217.934C564.582 217.902 565.84 217.938 567.094 217.945C571.531 223.449 575.902 229.008 580.199 234.621C580.281 229.066 580.293 223.516 580.23 217.965L584.719 217.906L584.691 242.227L580.945 242.238C576.559 236.59 572.137 230.965 567.68 225.375C567.691 230.984 567.734 236.598 567.809 242.207L563.348 242.234L563.332 217.934Z" fill="#0B203A"/>
<path d="M538.324 217.887C535.242 225.992 532.289 234.168 529.07 242.215H533.648L535.645 236.945L544.145 236.949C545.02 236.977 545.457 236.832 546.113 237.52C547.098 238.559 547.605 240.871 548.066 242.23L552.586 242.176L543.324 217.895L538.324 217.887ZM540.793 222.848C542.191 224.859 543.766 230.348 544.52 232.895C543.941 233.172 542.676 233.039 542 233.043L537.016 233.059C538.215 229.625 539.422 226.215 540.793 222.844V222.848Z" fill="#0B203A"/>
<path d="M624.895 217.852C630.348 217.93 635.805 217.891 641.258 217.898L641.273 222.062L629.336 222.031L629.285 228.145L638.91 228.164L638.906 232.207C636.961 232.188 630.457 231.621 629.266 232.633L629.328 238.215L641.59 238.23L641.57 242.242L624.84 242.23C624.828 234.113 624.684 225.969 624.895 217.855V217.852Z" fill="#0B203A"/>
<path d="M415.941 217.789C420.188 217.348 423.07 218.25 426.645 220.461L424.645 223.824C422.312 222.445 420.039 221.297 417.23 221.664C416.301 221.785 415.223 222.469 414.781 223.324C414.574 223.723 414.387 224.152 414.523 224.598C415.258 226.996 422.051 228.512 424.234 229.934C425.832 230.977 427.191 232.391 427.582 234.316C427.91 235.945 427.48 238.035 426.496 239.383C424.945 241.508 422.324 242.16 419.879 242.551C415.434 242.387 412.516 240.848 409.195 238.07L411.633 234.871C412.504 235.621 413.367 236.27 414.371 236.82C416.293 237.875 418.977 239.062 421.191 238.137C422.152 237.734 423.051 236.988 423.477 236.039C422.637 231.766 412.887 231.898 410.637 226.586C410.012 225.105 410.102 223.383 410.742 221.926C411.715 219.703 413.777 218.57 415.941 217.789Z" fill="#0B203A"/>
<path d="M436.875 217.887L455.785 217.895L455.763 222.016L448.664 222.027L448.695 235.852L448.711 242.238L444.31 242.23L444.238 222.016L436.855 222.023L436.875 217.887Z" fill="#0B203A"/>
<path d="M595.215 217.945C601.441 217.758 607.738 217.926 613.973 217.926L614.008 222.043L606.797 222.027L606.785 234.707L606.793 242.219L602.469 242.234L602.465 222.023L595.191 222.027L595.215 217.945Z" fill="#0B203A"/>
<path d="M394.383 217.934L398.824 217.922L398.832 242.219L394.418 242.242L394.383 217.934Z" fill="#0B203A"/>
<path d="M237.704 145.809C240.813 145.852 243.771 146.141 246.825 146.754C251.478 147.688 258.837 149.43 261.532 153.75C262.731 155.664 262.634 157.699 262.095 159.816C256.106 183.379 239.372 201.637 218.903 213.871C171.7 242.09 100.423 243.926 48.2857 230.797C37.1377 227.988 16.6887 221.664 8.50466 213.867C7.42666 212.84 6.68866 211.629 5.93066 210.359C36.0867 222.328 57.9417 226.328 90.1097 227.992C102.825 228.652 115.903 228.902 128.618 228.172V204.77C128.638 199.832 129.2 194.188 128.239 189.359C127.739 186.832 126.724 184.379 124.989 182.445C122.829 180.035 119.907 178.906 116.708 178.832C113.517 178.754 110.591 179.609 108.306 181.922C106.517 183.738 105.376 186.16 104.872 188.645C104.032 192.805 104.454 197.539 104.466 201.785L104.489 220.562C100.122 220.562 95.7587 220.371 91.4067 219.98C91.3287 214.164 91.3247 208.348 91.3987 202.531C91.4417 197.645 91.9307 192.297 90.8877 187.508C90.4107 185.32 89.4457 183.301 87.8987 181.668C87.7707 181.531 87.6377 181.398 87.5007 181.27C87.3637 181.141 87.2277 181.016 87.0827 180.895C86.9417 180.77 86.7977 180.652 86.6487 180.539C86.5007 180.422 86.3487 180.312 86.1917 180.207C86.0397 180.098 85.8837 179.996 85.7237 179.898C85.5627 179.801 85.4027 179.707 85.2387 179.617C85.0747 179.523 84.9067 179.438 84.7387 179.355C84.5707 179.277 84.3987 179.199 84.2277 179.125C84.0557 179.055 83.8797 178.984 83.7037 178.922C83.5277 178.859 83.3487 178.797 83.1687 178.746C82.9927 178.691 82.8097 178.641 82.6297 178.594C82.4457 178.551 82.2667 178.508 82.0787 178.473C81.8957 178.438 81.7117 178.406 81.5277 178.383C81.3407 178.355 81.1527 178.332 80.9697 178.316C80.7817 178.301 80.5947 178.289 80.4067 178.281C80.2197 178.277 80.0317 178.273 79.8447 178.277C79.4847 178.285 79.1257 178.309 78.7667 178.352C78.4107 178.395 78.0557 178.457 77.7037 178.535C77.3527 178.609 77.0047 178.707 76.6607 178.82C76.3207 178.93 75.9807 179.059 75.6527 179.203C75.3207 179.348 75.0007 179.512 74.6887 179.688C74.3717 179.863 74.0667 180.055 73.7737 180.262C73.4777 180.469 73.1917 180.691 72.9187 180.926C72.6457 181.16 72.3837 181.406 72.1337 181.668C71.8207 181.996 71.5277 182.344 71.2587 182.707C70.9847 183.074 70.7387 183.453 70.5127 183.848C70.2857 184.242 70.0867 184.648 69.9107 185.066C69.7347 185.484 69.5827 185.914 69.4577 186.352C67.9617 191.547 68.7347 202.004 68.7427 207.684L68.6917 219.043C64.5477 218.648 60.4347 218.039 56.3527 217.211C56.1727 210.293 56.3717 203.324 56.3917 196.402C56.3987 192.797 56.7277 188.855 56.0127 185.312C55.5277 182.922 54.4737 180.551 52.7897 178.766C51.1567 177.035 49.0317 176.109 46.6567 176.062C44.6217 176.02 42.8407 176.727 41.4417 178.219C40.0627 179.688 39.2307 181.676 38.8127 183.625C37.9267 187.777 38.3637 192.438 38.3837 196.684L38.4227 214.059C34.7237 213.16 31.0317 212.207 27.3597 211.203L27.4147 192.277C27.4187 188.734 27.6957 184.898 27.1487 181.398C26.7277 178.703 25.6337 175.695 23.7857 173.641C23.0237 172.801 22.0557 172.207 20.9027 172.164C19.4847 172.109 17.9147 172.824 16.9107 173.805C15.8367 174.855 15.1177 176.426 14.8677 177.895C14.2857 181.371 14.5867 185.266 14.5907 188.793L14.5707 207.484L6.30167 204.289C6.08267 190.84 6.39567 177.336 6.44167 163.879C16.2467 165.355 26.5167 165.887 36.4067 166.641C59.5437 168.328 82.7117 169.133 105.907 169.051C114.329 169.051 122.763 169.164 131.181 168.887C138.794 185.824 151.009 209.312 168.704 216.973C177.849 220.93 184.993 218.781 193.829 215.336C190.79 215.387 187.739 215.34 184.72 214.992C172.759 213.617 164.04 206.738 156.802 197.484C154.458 194.484 146.642 183.832 147.38 179.977C147.454 179.594 147.813 179.203 148.165 179.027C150.017 178.105 159.044 178.82 161.356 178.828C179.81 178.895 239.583 175.07 253.29 164.715C255.028 163.402 256.735 161.539 256.911 159.262C257.442 152.465 247.224 152.73 242.915 150.516C240.677 149.359 239.313 147.688 237.704 145.809Z" fill="#F9D689"/>
<path d="M75.8668 31.2109L74.7968 31.2659C54.9218 32.9879 36.1248 38.2769 17.9648 46.4799C14.6448 47.9799 10.6288 49.4409 7.69478 51.5859C6.69878 57.3949 6.89078 63.5739 6.85878 69.4569L6.80078 92.312L26.9258 90.2299C50.1718 87.7889 73.6328 85.6249 96.9648 84.1839C88.8008 67.5509 83.8318 49.7189 76.9688 32.5859C76.7028 31.9179 76.4768 31.5899 75.8668 31.2109ZM62.0078 52.9379C62.8478 52.9219 63.5978 53.0269 64.3548 53.6369C67.4728 56.1599 66.6638 70.4999 66.7228 74.7459L62.1018 75.2109L57.6878 75.6909C57.7228 69.9339 56.6838 61.6089 58.3118 56.2339C58.8518 54.4609 59.5078 53.7969 61.1368 52.9769C61.4408 52.9569 61.7298 52.9409 62.0078 52.9379ZM38.4688 56.8589C39.4918 56.8669 40.3118 56.9769 41.1088 57.8089C43.6838 60.4879 42.6718 74.3749 42.6718 78.3909C41.6168 78.6479 40.5078 78.7659 39.4378 78.9339C38.0158 79.1639 36.5898 79.3749 35.1678 79.5739C35.1448 74.2579 34.7808 68.6799 35.2148 63.3909C35.4378 60.6719 35.9058 58.6679 38.0158 56.8589C38.1718 56.8589 38.3198 56.8549 38.4688 56.8589ZM18.4838 60.7699C19.3868 60.7769 20.1018 60.9409 20.9798 61.5939C22.7888 64.5039 22.4338 77.3159 22.0228 81.1479C21.4018 81.7769 20.6798 81.7339 19.8238 81.8949L15.5978 82.5979L15.3788 72.8009C15.2968 69.0159 14.6988 63.7379 17.5118 60.7969C17.8628 60.7769 18.1838 60.7659 18.4838 60.7699Z" fill="#F9D689"/>
<path d="M95.176 101.734C96.195 101.637 98.105 101.309 98.91 101.844C99.012 109.918 115.914 139.73 120.43 149.289C112.383 150.547 98.812 150.023 90.41 149.527C90.141 143.543 90.297 137.535 90.34 131.547C90.359 128.344 90.613 124.898 90.07 121.742C89.691 119.551 88.844 117.441 87.363 115.758C85.602 113.758 83.223 112.754 80.582 112.652C77.926 112.551 75.418 113.289 73.465 115.145C71.891 116.633 70.871 118.641 70.352 120.727C69.082 125.816 69.75 142.809 69.734 149.109L55.441 148.836C55.195 140.469 56.121 130.625 55.344 122.57C55.055 119.57 53.941 116.41 51.469 114.52C50.129 113.488 48.289 112.898 46.602 113.133C44.047 113.488 42.375 115.402 40.957 117.379C38.254 123.562 39.375 140.91 39.387 148.281C35.379 148.207 31.371 148.051 27.371 147.812C27.387 141.219 28.074 127.449 27.066 121.77C26.719 119.809 26.051 117.723 24.77 116.16C23.812 114.992 22.551 114.289 21.031 114.199C19.57 114.117 18.234 114.598 17.207 115.652C15.914 116.977 15.199 118.918 14.871 120.711C14.223 124.238 14.531 128.117 14.547 131.703L14.551 146.93C11.82 146.746 9.098 146.512 6.375 146.223L6.469 107.77C15.285 105.926 28.715 105.688 38.043 105.086C57.074 103.773 76.121 102.656 95.176 101.734Z" fill="#F9D689"/>
<path d="M273.824 0.828145C274.461 0.773145 275.09 0.734147 275.727 0.727147C277.977 0.691147 279.598 1.27315 281.195 2.93815C282.391 4.18815 283.133 5.85515 283.055 7.60215C282.969 9.67215 281.797 11.4921 280.324 12.8751C275.828 17.1091 267.621 21.8401 262.32 25.3751C250.762 32.9841 239.324 40.7701 228.004 48.7301C222.09 52.9221 215.809 57.1051 210.465 62.0041C203.398 68.4801 205.184 78.4101 200.398 85.8521C197.73 90.0001 191.27 94.4732 187.457 97.9882C185.871 96.1992 184.391 94.4181 183.129 92.3831C185.18 90.8481 187.715 89.2462 189.324 87.2382C189.961 86.4412 190.238 85.8051 190.125 84.7581C189.543 83.9101 189.336 83.8091 188.406 83.3481C185.594 84.4301 183 86.4221 180.465 88.0391C179.207 85.9611 178.156 83.8551 177.145 81.6451C178.934 79.8951 182.391 78.5391 183.34 76.1721C183.676 75.3361 183.637 75.2032 183.273 74.4452C182.879 74.2032 182.535 74.0351 182.066 73.9771C179.051 73.6051 176.945 75.2191 174.664 76.8831C173.246 73.8631 171.871 70.8201 170.535 67.7621C184.285 50.5861 189.555 61.5311 202.242 54.1251C209.848 49.6801 216.828 42.9451 223.719 37.4341C234.793 28.5861 246.016 19.9341 257.391 11.4731C262.309 7.78515 267.879 2.52015 273.824 0.828145Z" fill="#0B203A"/>
<path d="M1.07458 151.34C13.0786 151.555 25.1726 153.168 37.1846 153.734C62.1886 154.918 87.4106 155.32 112.442 155.367C116.915 155.375 126.763 154.691 130.552 155.891C131.685 156.25 132.802 156.906 133.228 158.09C133.689 159.379 133.243 160.641 132.747 161.84C127.782 163.344 115.595 162.59 109.966 162.578C84.1456 162.609 58.3486 161.84 32.5746 160.266C22.0946 159.535 11.3096 158.887 0.938583 157.176C0.883583 155.223 0.973577 153.293 1.07458 151.34Z" fill="#F9D689"/>
<path d="M158.098 71.98C158.598 72.156 158.949 72.418 159.27 72.848C161.059 75.301 161.914 79.34 163.113 82.176C164.211 84.773 165.566 87.305 166.914 89.781C168.586 92.844 170.398 95.82 172.355 98.711C175.836 103.836 180.75 109.094 181.82 115.371C183.43 124.816 179.285 135.684 184.457 144.324C190.793 154.898 203.504 155.703 212.348 163.168C213.387 164.047 214.715 165.066 215.414 166.238C215.836 166.945 215.859 167.273 215.633 168.039C214.57 168.789 214.012 168.758 212.738 168.902L209.75 169.301C203.035 160.688 191.23 160.609 183.332 152.93C170.359 140.312 180.363 126.488 175.848 113.883C174.383 109.793 170.676 106.387 168.125 102.945C163.828 97.141 155.863 83.324 155.992 75.965C156.023 74.195 156.91 73.184 158.098 71.98Z" fill="#FFFBD8"/>
<path d="M165.145 65.9531C167.395 67.7461 172.496 81.3361 174.367 84.8631C176.137 88.1951 178.082 91.5161 180.203 94.6331C183.938 100.113 188.234 104.918 189.824 111.527C191.77 119.633 189.246 127.691 190.906 135.328C193.312 146.398 206.355 148.852 214.539 154.254C218.031 156.559 225.066 162.812 225.914 166.945C225.285 167.484 224.148 167.488 223.328 167.633C222.324 167.73 221.332 167.938 220.336 168.113C214.992 158.203 205.645 156.551 196.676 151.363C192.203 148.777 187.613 144.586 186.25 139.422C185.641 137.109 185.121 135.129 184.996 132.727C184.602 125.113 186.832 117.371 183.824 110.016C182.18 106.004 179.281 102.586 176.836 99.0471C172.453 92.7191 164.883 80.4651 163.582 72.8871C163.125 70.2151 163.621 68.1641 165.145 65.9531Z" fill="#FEFAC5"/>
<path d="M150.516 77.5474L151.461 78.0234C153.258 80.4344 154.219 84.2304 155.406 87.0234C156.602 89.7934 157.918 92.5004 159.355 95.1454C160.941 98.1524 162.723 101.039 164.695 103.805C167.738 108.129 172.207 112.531 173.32 117.848C174.656 124.199 172.562 131.219 172.922 137.734C173.562 149.266 182.062 157.844 192.312 162.164C195.758 163.613 201.559 164.852 204.164 167.531C204.785 168.168 204.848 168.512 204.809 169.367C204.195 169.957 203.781 169.863 202.969 169.973C202.051 170.07 201.109 170.18 200.184 170.176C193.012 170.152 181.449 163.48 176.371 158.531C166.066 148.48 166.602 139.371 167.949 126.059C168.234 123.238 168.621 120.148 167.543 117.445C166.18 114.02 162.969 110.875 160.766 107.93C156.098 101.699 148.73 89.4574 148.836 81.3984C148.863 79.6414 149.293 78.7774 150.516 77.5474Z" fill="#FFFBD8"/>
<path d="M93.9837 90.3202C96.7107 90.1022 99.6908 89.7342 102.297 90.7302C103.438 91.1642 104.203 91.7232 104.73 92.8402C104.668 93.2382 104.691 93.4882 104.418 93.8092C103.504 94.8752 101.941 95.2462 100.613 95.4452C97.1328 95.9692 93.4258 95.9962 89.9138 96.1992L70.0547 97.3322C50.0587 98.5822 30.0778 100.039 10.1128 101.711C7.36275 102.016 4.13275 102.703 1.40575 102.324C1.09775 102.016 0.905755 101.957 0.858755 101.484C0.749755 100.352 1.28875 98.7812 2.03075 97.9142C2.53475 97.3322 3.28075 97.1372 4.01975 97.0042C6.65975 96.5392 9.49976 96.5202 12.1758 96.2932L27.3048 94.9102C49.4998 92.8912 71.7267 91.3592 93.9837 90.3202Z" fill="#F9D689"/>
<path d="M66.2975 20.4881C67.9775 20.2971 70.0515 20.1451 71.7275 20.3521C72.9225 20.5001 74.0905 21.1561 74.8055 22.1291C75.4065 22.9491 75.6375 23.6911 75.4735 24.7031C72.8875 25.7541 58.7465 27.3911 54.9025 28.1481C39.4105 31.2031 24.4025 37.2771 10.4225 44.5121C9.85546 44.8521 9.28947 45.1841 8.71947 45.5081C7.10947 46.4221 5.67246 47.0351 3.81246 46.5231L3.48047 45.8951C3.64147 44.8791 3.94947 44.2231 4.60547 43.4491C6.67247 41.0161 10.0475 39.4961 12.8125 37.9961C27.8635 29.8241 49.1765 22.0901 66.2975 20.4881Z" fill="#F9D689"/>
<path d="M194.66 135.852C195.055 135.836 195.453 135.824 195.848 135.82C210.027 135.531 223.059 136.949 233.656 147.328C236.266 149.879 243.781 159.121 243.824 162.52L243.336 162.859C241.969 163.328 240.574 163.719 239.191 164.129C236.652 159.844 234.246 155.355 230.762 151.754C221.871 142.559 211.191 141.188 199.051 140.926C196.941 139.547 195.891 137.98 194.66 135.852Z" fill="#FEFAC5"/>
<path d="M147.094 153.859C155.672 153.648 165.684 156.973 173.066 161.305C178.902 164.727 184.027 168.434 190.426 170.91C187.527 171.125 184.594 171.449 181.691 171.238C163.828 166.547 159.457 155.648 138.762 159.852L138.617 155.602C141.445 154.547 144.094 154.086 147.094 153.859Z" fill="#FFFBD8"/>
<path d="M148.027 136.902C152.918 136.387 157.996 137.293 162.832 137.969C162.742 139.801 162.562 141.641 162.426 143.469C153.812 142.062 147.512 141.613 138.801 143.102C134.98 144.004 131.457 145.305 127.891 146.941C127.262 145.684 126.816 144.398 126.355 143.074C132.812 139.262 140.609 137.441 148.027 136.902Z" fill="#FEFAC5"/>
<path d="M149.324 145.062C154.93 145.047 159.609 145.773 164.762 148.012C165.855 150.238 166.832 152.539 167.863 154.793C162.555 152.746 157.633 150.652 151.898 150.242C146.457 150.219 141.535 151.086 136.289 152.414C134.512 151.504 132.668 150.738 130.836 149.941C136.59 146.395 142.691 145.461 149.324 145.062Z" fill="#FFFBD8"/>
<path d="M205.517 144.984C210.833 144.285 215.981 145.66 220.657 148.145C226.517 151.258 234.306 158.32 236.282 164.812L235.993 165.258C234.349 165.73 232.665 166.09 231.001 166.488C230.954 166.363 230.907 166.238 230.856 166.113C226.755 155.855 215.103 149.16 205.517 144.984Z" fill="#FFFBD8"/>
<path d="M141.281 163.316C151.812 162.301 157.859 164.996 167.16 169.195C169.18 170.109 171.285 170.762 173.293 171.664L173.105 171.984C163.359 172.145 160.648 172.16 151.238 169.562C148.59 168.836 145.926 168.195 143.543 166.777C142.41 166.105 141.023 165.137 140.676 163.824L141.281 163.316Z" fill="#FEFAC5"/>
<path d="M145.426 89.457C145.5 89.535 145.578 89.609 145.645 89.691C146.59 90.855 147.219 92.262 147.031 93.77C145.281 96.375 135.98 101.293 132.945 102.215L131.559 102.203L131.16 101.707C131.176 101.168 131.199 100.711 131.379 100.199C133.148 95.223 141.02 91.586 145.426 89.457Z" fill="#0B203A"/>
<path d="M155.325 107.086C156.485 108.281 157.247 109.602 158.079 111.031C154.399 114.266 150.431 116.48 145.646 117.531C145.372 117.535 144.985 117.555 144.728 117.516C143.88 117.395 143.724 117.199 143.185 116.598L143.29 115.816C145.606 112.164 151.638 109.332 155.325 107.086Z" fill="#0B203A"/>
<path d="M149.945 99.2031L150.371 99.2971C151.512 100.242 152.172 101.539 152.93 102.789C148.762 105.457 144.344 107.824 139.93 110.055C139.559 110.152 138.949 110.359 138.547 110.355C137.688 110.348 137.5 110.215 136.941 109.645C136.918 109.324 136.875 109.074 136.961 108.742C137.738 105.664 146.922 101.105 149.945 99.2031Z" fill="#0B203A"/>
</svg>
